<?xml version="1.0" encoding="utf-8"?>
<!-- Generator: Adobe Illustrator 18.1.1, SVG Export Plug-In . SVG Version: 6.00 Build 0)  -->
<!DOCTYPE svg PUBLIC "-//W3C//DTD SVG 1.1//EN" "http://www.w3.org/Graphics/SVG/1.1/DTD/svg11.dtd">
<svg version="1.1" id="Layer_1" xmlns="http://www.w3.org/2000/svg" xmlns:xlink="http://www.w3.org/1999/xlink" x="0px" y="0px"
	 viewBox="0 0 316 92.5" enable-background="new 0 0 316 92.5" xml:space="preserve">
<g>
	<rect x="0" y="0" fill="none" width="316" height="92.5"/>
	<g>
		<path fill="#F8F7F8" d="M24.5,15.4h96L72.1,74.8L24.5,15.4z M42,19.9l-4.7,5.2l34.8,44.2l35.8-43.9l-4.7-5.5H42z"/>
		<path fill="#B6B2B4" d="M26.6,17.6H122L73.5,77.1L26.6,17.6z M44.2,22.1l-4.7,5.2l34.8,44.2l35.8-43.9l-4.7-5.5H44.2z"/>
		<linearGradient id="SVGID_1_" gradientUnits="userSpaceOnUse" x1="73.5831" y1="78.1123" x2="73.5831" y2="14.2235">
			<stop  offset="0" style="stop-color:#CCC8CA"/>
			<stop  offset="0.1796" style="stop-color:#DCD9DB"/>
			<stop  offset="0.4408" style="stop-color:#EFEEEF"/>
			<stop  offset="0.6067" style="stop-color:#F7F6F6"/>
			<stop  offset="0.8333" style="stop-color:#F5F4F5"/>
			<stop  offset="0.9441" style="stop-color:#EEEDEE"/>
			<stop  offset="0.9888" style="stop-color:#E9E7E9"/>
		</linearGradient>
		<path fill="url(#SVGID_1_)" d="M25.6,16.5h96.1L73.2,76L25.6,16.5z M43.1,21l-4.7,5.2l34.8,44.2L109,26.6l-4.7-5.5H43.1z"/>
	</g>
	<path fill="#0072BB" d="M56.6,28.7c-7.8,0-14.2,5.9-14.2,13.2c0,8.4,5.8,14.2,14.2,14.2c8.4,0,14.2-5.8,14.2-14.2
		C70.9,34.6,64.5,28.7,56.6,28.7z M56.6,50.1c-4.3,0-7.7-3.6-7.7-8.2c0-3.9,3.6-7.3,7.7-7.3c4.1,0,7.7,3.4,7.7,7.3
		C64.4,46.5,61,50.1,56.6,50.1z"/>
	<path fill="#0072BB" d="M149.2,50.2c-0.4,0.4-0.9,0.6-1.4,0.6c-0.8,0-1.7-0.7-2.8-2.1l-3.5,3.7c1.6,2.3,3.8,3.5,6.4,3.5
		c5.3,0,8.4-3.3,8.4-8.9V29.6H150l0,17.2C150,47.9,150,49.4,149.2,50.2z"/>
	<path fill="#0072BB" d="M165.4,43.1V29.6h-6.2V44c0,3.5,0.2,6.7,2.7,9.1c1.8,1.8,4.9,2.8,8.5,2.8s6.7-1,8.5-2.8
		c2.5-2.4,2.7-5.5,2.7-9.1V29.6h-6.2v13.6c0,2.8,0,7.5-5,7.5C165.4,50.6,165.4,45.9,165.4,43.1z"/>
	<path fill="#FFFFFF" d="M56.6,28c-8.2,0-14.9,6.2-14.9,13.9c0,8.6,6.2,14.9,14.9,14.9c8.6,0,14.9-6.2,14.9-14.9
		C71.5,34.3,64.8,28,56.6,28z M56.6,56.1c-8.4,0-14.2-5.8-14.2-14.2c0-7.3,6.4-13.2,14.2-13.2c7.8,0,14.2,5.9,14.2,13.2
		C70.9,50.3,65,56.1,56.6,56.1z"/>
	<path fill="#FFFFFF" d="M56.6,34.7c-4.1,0-7.7,3.4-7.7,7.3c0,4.6,3.4,8.2,7.7,8.2c4.3,0,7.7-3.6,7.7-8.2
		C64.4,38.1,60.8,34.7,56.6,34.7z M56.6,49.5c-4,0-7.1-3.3-7.1-7.5c0-3.5,3.3-6.6,7.1-6.6c3.8,0,7.1,3.1,7.1,6.6
		C63.8,46.2,60.6,49.5,56.6,49.5z"/>
	<g>
		<path fill="none" d="M23.1,35.3v14.1h1.3c4.7,0,7.5-2.6,7.5-7.1c0-4.4-2.9-7.1-7.5-7.1H23.1z"/>
		<path fill="#0072BB" d="M16,29.5v25.7h9.7c7.5,0,13.5-5.8,13.5-12.9c0-7.1-6.1-12.9-13.5-12.9H16z M32.5,42.4
			c0,5.7-4.2,7.7-8.2,7.7h-1.9V34.7h2C29.4,34.7,32.5,37.7,32.5,42.4z"/>
		<path fill="#FFFFFF" d="M25.8,28.9H15.4v27h10.4c7.8,0,14.1-6.1,14.1-13.5C39.9,35,33.6,28.9,25.8,28.9z M16,55.3V29.5h9.7
			c7.5,0,13.5,5.8,13.5,12.9c0,7.1-6.1,12.9-13.5,12.9H16z"/>
		<path fill="#FFFFFF" d="M24.5,34.7h-2v15.4h1.9c3.9,0,8.2-2,8.2-7.7C32.5,37.7,29.4,34.7,24.5,34.7z M24.4,49.5h-1.3V35.3h1.3
			c4.6,0,7.5,2.7,7.5,7.1C31.9,46.8,29.1,49.5,24.4,49.5z"/>
	</g>
	<g>
		<path fill="#0072BB" d="M87.9,44.5c3.5-0.6,5.7-3.4,5.7-7.1c0-5-3.3-7.8-9.1-7.8H74.1v25.7h6.5V45.1h0.6l6.7,10.1h8l-8.5-10.7
			L87.9,44.5z M81.6,41.3h-1v-7.2h1c2.2,0,5.2,0.4,5.2,3.6C86.8,41,83.8,41.3,81.6,41.3z"/>
		<path fill="#FFFFFF" d="M94.2,37.3c0-5.3-3.7-8.4-9.8-8.4H73.5v27h7.7v-9.5l6.3,9.5h9.6L88.5,45C92,44.1,94.2,41.2,94.2,37.3z
			 M87.8,55.3l-6.7-10.1h-0.6v10.1h-6.5V29.5h10.3c5.8,0,9.1,2.8,9.1,7.8c0,3.7-2.2,6.5-5.7,7.1l-0.5,0.1l8.5,10.7H87.8z"/>
	</g>
	<path fill="#FFFFFF" d="M81.6,34.1h-1v7.2h1c2.2,0,5.2-0.4,5.2-3.6C86.8,34.5,83.8,34.1,81.6,34.1z M81.6,40.7h-0.4v-5.9h0.4
		c3.2,0,4.6,0.9,4.6,3C86.2,39.8,84.8,40.7,81.6,40.7z"/>
	<path fill="#FFFFFF" d="M149.4,46.7c0,1,0,2.4-0.6,3c-0.2,0.2-0.6,0.4-1,0.4c-0.6,0-1.5-0.8-2.5-2.1l-0.2-0.3l-4.4,4.6l0.1,0.2
		c1.7,2.6,4.2,4,7,4c5.8,0,9.1-3.5,9.1-9.6V28.9h-7.5V46.7z M156.3,47c0,5.7-3.1,8.9-8.4,8.9c-2.6,0-4.8-1.2-6.4-3.5l3.5-3.7
		c1.1,1.4,2,2.1,2.8,2.1c0.6,0,1.1-0.2,1.4-0.6c0.8-0.8,0.8-2.4,0.8-3.5l0-17.2h6.2V47z"/>
	<path fill="#FFFFFF" d="M174.7,43.1c0,3.6-0.3,6.8-4.3,6.8c-4,0-4.3-3.2-4.3-6.8V28.9h-7.5V44c0,3.7,0.2,6.9,2.9,9.5
		c2.7,2.6,6.8,3,9,3c2.2,0,6.3-0.4,9-3c2.6-2.6,2.9-5.8,2.9-9.5V28.9h-7.5V43.1z M175.4,29.6h6.2V44c0,3.5-0.2,6.7-2.7,9.1
		c-1.8,1.8-4.9,2.8-8.5,2.8s-6.7-1-8.5-2.8c-2.5-2.4-2.7-5.5-2.7-9.1V29.6h6.2v13.6c0,2.8,0,7.5,5,7.5c5,0,5-4.7,5-7.5V29.6z"/>
	<g>
		<polygon fill="#0072BB" points="190.7,29.5 183.9,29.5 194.7,55.2 199.6,55.2 210.6,29.5 203.8,29.5 197.2,46.1 		"/>
		<path fill="#FFFFFF" d="M197.2,44.4l-6.1-15.5H183l11.3,26.8l0.1,0.2h5.7l11.5-27h-8.1L197.2,44.4z M210.6,29.5l-11,25.7h-4.9
			l-10.8-25.7h6.7l6.6,16.5l6.6-16.5H210.6z"/>
	</g>
	<g>
		<polygon fill="#0072BB" points="218.7,44.9 226.4,44.9 226.4,39.7 218.7,39.7 218.7,34.7 226.8,34.7 226.8,29.5 212.5,29.5 
			212.5,55.2 226.8,55.2 226.8,50.1 218.7,50.1 		"/>
		<path fill="#FFFFFF" d="M211.8,55.9h15.6v-6.4h-8.1v-3.9h7.7v-6.4h-7.7v-3.8h8.1v-6.4h-15.6V55.9z M212.5,29.5h14.4v5.2h-8.1v5
			h7.7v5.2h-7.7v5.2h8.1v5.2h-14.4V29.5z"/>
	</g>
	<g>
		<polygon fill="#0072BB" points="229.8,29.5 229.8,55.2 236,55.2 236,39.1 236.6,39.1 249.1,55.2 255.5,55.2 255.5,29.5 
			249.3,29.5 249.3,45.6 248.7,45.6 248.6,45.5 236.2,29.5 		"/>
		<path fill="#FFFFFF" d="M248.6,44.5l-12-15.5l-0.1-0.1h-7.3v27h7.5V40.3l12.1,15.6h7.3v-27h-7.5V44.5z M249.3,29.5h6.2v25.7h-6.4
			l-12.5-16.1H236v16.1h-6.2V29.5h6.4l12.4,16l0.1,0.1h0.5V29.5z"/>
	</g>
	<g>
		<rect x="258.7" y="29.5" fill="#0072BB" width="6.2" height="25.7"/>
		<path fill="#FFFFFF" d="M258.1,55.9h7.5v-27h-7.5V55.9z M258.7,29.5h6.2v25.7h-6.2V29.5z"/>
	</g>
	<g>
		<polygon fill="#0072BB" points="274.5,29.5 268.3,29.5 268.3,55.2 282.7,55.2 282.7,50.1 274.5,50.1 		"/>
		<path fill="#FFFFFF" d="M275.2,28.9h-7.5v27h15.7v-6.4h-8.2V28.9z M282.7,55.2h-14.4V29.5h6.2v20.5h8.2V55.2z"/>
	</g>
	<g>
		<polygon fill="#0072BB" points="299.9,34.7 299.9,29.5 285.6,29.5 285.6,55.2 299.9,55.2 299.9,50.1 291.8,50.1 291.8,44.9 
			299.5,44.9 299.5,39.7 291.8,39.7 291.8,34.7 		"/>
		<path fill="#FFFFFF" d="M300.6,35.3v-6.4H285v27h15.6v-6.4h-8.1v-3.9h7.7v-6.4h-7.7v-3.8H300.6z M299.5,44.9h-7.7v5.2h8.1v5.2
			h-14.4V29.5h14.4v5.2h-8.1v5h7.7V44.9z"/>
	</g>
	<g>
		<polygon fill="#0072BB" points="105.7,44.9 113.6,44.9 113.6,39.7 105.7,39.7 105.7,34.7 114.1,34.7 114.1,29.5 99.2,29.5 
			99.2,55.3 114.1,55.3 114.1,50.1 105.7,50.1 		"/>
		<path fill="#FFFFFF" d="M98.6,55.9h16.1v-6.4h-8.4v-3.9h8v-6.4h-8v-3.8h8.4v-6.4H98.6V55.9z M99.2,29.5h14.9v5.2h-8.4v5h8v5.2h-8
			v5.2h8.4v5.2H99.2V29.5z"/>
	</g>
	<g>
		<polygon fill="#0072BB" points="125.8,29.5 119.3,29.5 119.3,55.3 134.2,55.3 134.2,50.1 125.8,50.1 		"/>
		<path fill="#FFFFFF" d="M126.4,28.9h-7.7v27h16.2v-6.4h-8.5V28.9z M134.2,55.3h-14.9V29.5h6.5v20.5h8.5V55.3z"/>
	</g>
	<path fill="#0072BB" d="M133.7,29.6c0.2,0.1,0.3,0.2,0.4,0.4c0.1,0.2,0.2,0.4,0.2,0.6c0,0.2-0.1,0.4-0.2,0.6
		c-0.1,0.2-0.3,0.3-0.4,0.4c-0.2,0.1-0.4,0.2-0.6,0.2c-0.2,0-0.4-0.1-0.6-0.2c-0.2-0.1-0.3-0.3-0.4-0.4c-0.1-0.2-0.2-0.4-0.2-0.6
		c0-0.2,0.1-0.4,0.2-0.6c0.1-0.2,0.3-0.3,0.4-0.4c0.2-0.1,0.4-0.2,0.6-0.2C133.3,29.5,133.5,29.5,133.7,29.6z M132.4,29.4
		c-0.2,0.1-0.4,0.3-0.5,0.5c-0.1,0.2-0.2,0.5-0.2,0.7c0,0.2,0.1,0.5,0.2,0.7c0.1,0.2,0.3,0.4,0.5,0.5c0.2,0.1,0.5,0.2,0.7,0.2
		c0.2,0,0.5-0.1,0.7-0.2c0.2-0.1,0.4-0.3,0.5-0.5c0.1-0.2,0.2-0.5,0.2-0.7c0-0.2-0.1-0.5-0.2-0.7c-0.1-0.2-0.3-0.4-0.5-0.5
		c-0.2-0.1-0.5-0.2-0.7-0.2C132.9,29.2,132.7,29.3,132.4,29.4z M132.8,31.4v-0.7h0.1c0.1,0,0.2,0,0.2,0.1c0.1,0,0.1,0.2,0.3,0.4
		l0.1,0.2h0.3l-0.2-0.3c-0.1-0.1-0.2-0.2-0.2-0.3c0,0-0.1-0.1-0.1-0.1c0.1,0,0.2-0.1,0.3-0.1c0.1-0.1,0.1-0.2,0.1-0.3
		c0-0.1,0-0.2-0.1-0.2c0-0.1-0.1-0.1-0.2-0.1c-0.1,0-0.2,0-0.4,0h-0.5v1.5H132.8z M132.8,30.1h0.3c0.1,0,0.2,0,0.2,0
		c0,0,0.1,0,0.1,0.1c0,0,0,0.1,0,0.1c0,0.1,0,0.1-0.1,0.2c-0.1,0-0.1,0.1-0.3,0.1h-0.3V30.1z"/>
	<g>
		<g>
			<path fill="#B6B2B4" d="M141.3,71.6c0-3.2,2.2-5.5,5.4-5.5c2.6,0,4,1.5,4,2.2c0,0.8-0.9,1-1,0.9c-0.6-1.1-1.8-1.6-3-1.6
				c-2.1,0-3.6,1.6-3.6,4c0,2.3,1.6,4,3.7,4c1.4,0,2.6-0.7,3.1-1.8c0-0.1,1,0.1,1,0.9c0,0.8-1.4,2.5-4.2,2.5
				C143.5,77.1,141.3,74.8,141.3,71.6z"/>
			<path fill="#B6B2B4" d="M152,74.8c0-1.8,1.7-2.6,5.3-2.7h0.2V72c0-1.2-0.7-1.8-1.9-1.8c-1.2,0-1.9,0.6-2.3,1.3c0,0-1,0-1-0.8
				c0-0.8,1.1-1.9,3.4-1.9c2.2,0,3.4,1.1,3.4,3.1v4.8c0,0.1-0.3,0.2-0.6,0.2c-0.6,0-1-0.3-1-1.3c-0.6,0.8-1.6,1.4-2.8,1.4
				C152.9,77,152,76.1,152,74.8z M157.4,73.8v-0.6l-0.4,0c-2.3,0.1-3.5,0.5-3.5,1.6c0,0.7,0.6,1.1,1.5,1.1
				C156.4,75.9,157.4,75,157.4,73.8z"/>
			<path fill="#B6B2B4" d="M162.5,70.3c0.3-1,1-1.5,2-1.5c0.8,0,1.3,0.4,1.3,1c0,0.6-0.5,0.9-0.5,0.8c-0.2-0.2-0.6-0.3-1-0.3
				c-1.3,0-1.8,1.2-1.8,3.1v2.8c0,0.6-0.3,0.8-0.7,0.8h-0.2c-0.4,0-0.7-0.2-0.7-0.8v-7.1c0,0,0.3-0.2,0.6-0.2
				C162,68.9,162.5,69.2,162.5,70.3z"/>
			<path fill="#B6B2B4" d="M166.4,73c0-2.4,1.7-4.2,4-4.2c2.3,0,3.8,1.6,3.8,4v0.1c0,0.3-0.1,0.5-0.5,0.5h-5.8
				c0.1,1.5,1.2,2.4,2.7,2.4c1.4,0,2.1-0.6,2.5-1.3c0,0,0.9,0.1,0.9,0.8c0,0.7-1.2,1.8-3.4,1.8C168.1,77.1,166.4,75.4,166.4,73z
				 M167.9,72.3h4.7c-0.1-1.4-0.9-2.2-2.2-2.2C169.1,70,168.1,71,167.9,72.3z"/>
			<path fill="#B6B2B4" d="M180.3,69.7v-0.1c0-0.4,0.2-0.6,0.7-0.6h0.9v-0.6c0-2,0.9-2.9,2.5-2.9c1.2,0,1.8,0.5,1.8,1.1
				c0,0.5-0.4,0.7-0.4,0.7c-0.2-0.2-0.7-0.5-1.2-0.5c-0.8,0-1.1,0.5-1.1,1.6V69h1.3c0.5,0,0.7,0.2,0.7,0.6v0.1
				c0,0.4-0.2,0.6-0.7,0.6h-1.3v5.8c0,0.6-0.3,0.8-0.7,0.8h-0.2c-0.4,0-0.7-0.2-0.7-0.8v-5.8h-0.9C180.5,70.3,180.3,70.1,180.3,69.7
				z"/>
			<path fill="#B6B2B4" d="M186.2,72.9c0-2.4,1.7-4.1,4.1-4.1c2.4,0,4.1,1.7,4.1,4.1c0,2.4-1.7,4.1-4.1,4.1
				C187.9,77.1,186.2,75.4,186.2,72.9z M192.9,73c0-1.6-1.1-2.8-2.6-2.8c-1.5,0-2.6,1.2-2.6,2.8c0,1.6,1.1,2.8,2.6,2.8
				C191.8,75.7,192.9,74.6,192.9,73z"/>
			<path fill="#B6B2B4" d="M197.6,70.3c0.3-1,1-1.5,2-1.5c0.8,0,1.3,0.4,1.3,1c0,0.6-0.5,0.9-0.5,0.8c-0.2-0.2-0.6-0.3-1-0.3
				c-1.3,0-1.8,1.2-1.8,3.1v2.8c0,0.6-0.3,0.8-0.7,0.8h-0.2c-0.4,0-0.7-0.2-0.7-0.8v-7.1c0,0,0.3-0.2,0.6-0.2
				C197,68.9,197.6,69.2,197.6,70.3z"/>
			<path fill="#B6B2B4" d="M207.7,76.2v-8.9c0-0.6,0.4-0.9,0.9-0.9h2.7c2.6,0,4.1,1.2,4.1,3.4c0,2.2-1.4,3.4-4.2,3.4h-1.9v3.1
				c0,0.5-0.2,0.8-0.7,0.8h-0.2C207.9,76.9,207.7,76.7,207.7,76.2z M209.4,71.7h1.9c1.6,0,2.5-0.7,2.5-2c0-1.3-0.8-2-2.4-2h-1.9
				V71.7z"/>
			<path fill="#B6B2B4" d="M218.5,70.3c0.3-1,1-1.5,2-1.5c0.8,0,1.3,0.4,1.3,1c0,0.6-0.5,0.9-0.5,0.8c-0.2-0.2-0.6-0.3-1-0.3
				c-1.3,0-1.8,1.2-1.8,3.1v2.8c0,0.6-0.3,0.8-0.7,0.8h-0.2c-0.4,0-0.7-0.2-0.7-0.8v-7.1c0,0,0.3-0.2,0.6-0.2
				C217.9,68.9,218.4,69.2,218.5,70.3z"/>
			<path fill="#B6B2B4" d="M222.4,73c0-2.4,1.7-4.2,4-4.2c2.3,0,3.8,1.6,3.8,4v0.1c0,0.3-0.1,0.5-0.5,0.5h-5.8
				c0.1,1.5,1.2,2.4,2.7,2.4c1.4,0,2.1-0.6,2.5-1.3c0,0,0.9,0.1,0.9,0.8c0,0.7-1.2,1.8-3.4,1.8C224,77.1,222.4,75.4,222.4,73z
				 M223.9,72.3h4.7c-0.1-1.4-0.9-2.2-2.2-2.2C225.1,70,224.1,71,223.9,72.3z"/>
			<path fill="#B6B2B4" d="M231.2,72.9c0-2.4,1.7-4.1,4.1-4.1c2.3,0,3.4,1.4,3.4,2.2c0,0.7-0.9,0.8-1,0.7c-0.4-0.9-1-1.5-2.4-1.5
				c-1.5,0-2.6,1.2-2.6,2.8c0,1.6,1.1,2.8,2.6,2.8c1.3,0,2-0.7,2.4-1.5c0-0.1,1,0,1,0.7c0,0.7-1,2.2-3.4,2.2
				C232.9,77.1,231.2,75.3,231.2,72.9z"/>
			<path fill="#B6B2B4" d="M240,66.4c0-0.6,0.4-0.9,1-0.9c0.6,0,0.9,0.3,0.9,0.9c0,0.6-0.3,0.9-1,0.9C240.4,67.3,240,67,240,66.4z
				 M240.2,76.2v-6.4c0-0.6,0.3-0.8,0.7-0.8h0.2c0.4,0,0.7,0.2,0.7,0.8v6.4c0,0.6-0.3,0.8-0.7,0.8h-0.2
				C240.5,76.9,240.2,76.7,240.2,76.2z"/>
			<path fill="#B6B2B4" d="M243.4,72.9c0-2.4,1.7-4.1,4.1-4.1c2.4,0,4.1,1.7,4.1,4.1c0,2.4-1.7,4.1-4.1,4.1
				C245.1,77.1,243.4,75.4,243.4,72.9z M250.1,73c0-1.6-1.1-2.8-2.6-2.8c-1.5,0-2.6,1.2-2.6,2.8c0,1.6,1.1,2.8,2.6,2.8
				C249,75.7,250.1,74.6,250.1,73z"/>
			<path fill="#B6B2B4" d="M258.8,75.7c-0.6,0.8-1.4,1.4-2.6,1.4c-2.1,0-3-1.4-3-3.4v-4c0-0.6,0.3-0.8,0.7-0.8h0.2
				c0.4,0,0.7,0.2,0.7,0.8v3.8c0,1.4,0.7,2.2,1.9,2.2c1,0,1.8-0.6,2.2-1.4v-4.6c0-0.6,0.3-0.8,0.7-0.8h0.2c0.4,0,0.7,0.2,0.7,0.8v7
				c0,0-0.3,0.2-0.6,0.2C259.3,76.9,258.8,76.7,258.8,75.7z"/>
			<path fill="#B6B2B4" d="M261.8,75.4c0-0.5,0.6-0.8,0.6-0.7c0.5,0.7,1.4,1.2,2.6,1.2c1.1,0,1.7-0.4,1.7-1.1c0-0.8-0.7-0.9-2-1.2
				c-1.2-0.2-2.8-0.6-2.8-2.3c0-1.5,1.2-2.5,3.1-2.5c2,0,3,0.8,3,1.6c0,0.5-0.6,0.8-0.7,0.8c-0.5-0.7-1.3-1.1-2.3-1.1
				c-1.1,0-1.7,0.4-1.7,1.1c0,0.7,0.7,0.9,2,1.2c1.2,0.3,2.9,0.6,2.9,2.3c0,1.5-1.2,2.5-3.3,2.5C262.9,77.1,261.8,76.1,261.8,75.4z"
				/>
			<path fill="#B6B2B4" d="M275,76v-8.9c0-0.5,0.2-0.8,0.7-0.8h0.2c0.5,0,0.7,0.2,0.7,0.8v8.3h4.6c0.5,0,0.8,0.2,0.8,0.7v0.1
				c0,0.5-0.3,0.7-0.8,0.7h-5.4C275.4,76.9,275,76.6,275,76z"/>
			<path fill="#B6B2B4" d="M283.4,66.4c0-0.6,0.4-0.9,1-0.9c0.6,0,0.9,0.3,0.9,0.9c0,0.6-0.3,0.9-1,0.9
				C283.8,67.3,283.4,67,283.4,66.4z M283.6,76.2v-6.4c0-0.6,0.3-0.8,0.7-0.8h0.2c0.4,0,0.7,0.2,0.7,0.8v6.4c0,0.6-0.3,0.8-0.7,0.8
				h-0.2C283.9,76.9,283.6,76.7,283.6,76.2z"/>
			<path fill="#B6B2B4" d="M286.4,69.7v-0.1c0-0.4,0.2-0.6,0.7-0.6h0.9v-0.6c0-2,0.9-2.9,2.5-2.9c1.2,0,1.8,0.5,1.8,1.1
				c0,0.5-0.4,0.7-0.4,0.7c-0.2-0.2-0.7-0.5-1.2-0.5c-0.8,0-1.1,0.5-1.1,1.6V69h1.3c0.5,0,0.7,0.2,0.7,0.6v0.1
				c0,0.4-0.2,0.6-0.7,0.6h-1.3v5.8c0,0.6-0.3,0.8-0.7,0.8h-0.2c-0.4,0-0.7-0.2-0.7-0.8v-5.8h-0.9C286.6,70.3,286.4,70.1,286.4,69.7
				z"/>
			<path fill="#B6B2B4" d="M292.3,73c0-2.4,1.7-4.2,4-4.2c2.3,0,3.8,1.6,3.8,4v0.1c0,0.3-0.1,0.5-0.5,0.5h-5.8
				c0.1,1.5,1.2,2.4,2.7,2.4c1.4,0,2.1-0.6,2.5-1.3c0,0,0.9,0.1,0.9,0.8c0,0.7-1.2,1.8-3.4,1.8C294,77.1,292.3,75.4,292.3,73z
				 M293.8,72.3h4.7c-0.1-1.4-0.9-2.2-2.2-2.2C295,70,294,71,293.8,72.3z"/>
		</g>
	</g>
</g>
</svg>
