<?xml version="1.0" encoding="UTF-8" standalone="no"?>
<!-- Created with Inkscape (http://www.inkscape.org/) -->

<svg
   xmlns:dc="http://purl.org/dc/elements/1.1/"
   xmlns:cc="http://creativecommons.org/ns#"
   xmlns:rdf="http://www.w3.org/1999/02/22-rdf-syntax-ns#"
   xmlns:svg="http://www.w3.org/2000/svg"
   xmlns="http://www.w3.org/2000/svg"
   xmlns:sodipodi="http://sodipodi.sourceforge.net/DTD/sodipodi-0.dtd"
   xmlns:inkscape="http://www.inkscape.org/namespaces/inkscape"
   width="292.41293"
   height="132.396"
   id="svg3806"
   version="1.1"
   inkscape:version="0.48.0 r9654"
   sodipodi:docname="New document 4">
  <defs
     id="defs3808">
    <clipPath
       clipPathUnits="userSpaceOnUse"
       id="clipPath3043">
      <path
         inkscape:connector-curvature="0"
         d="m 278,163.4 120.199,0 0,70.099 -120.199,0 0,-70.099 z"
         id="path3045" />
    </clipPath>
    <linearGradient
       x1="0"
       y1="0"
       x2="0.98877001"
       y2="0"
       gradientUnits="userSpaceOnUse"
       gradientTransform="matrix(0,54.876373,86.667618,0,290.97394,171.07539)"
       spreadMethod="pad"
       id="linearGradient3029">
      <stop
         style="stop-opacity:1;stop-color:#aba9ab"
         offset="0"
         id="stop3031" />
      <stop
         style="stop-opacity:1;stop-color:#eceaea"
         offset="0.606735"
         id="stop3033" />
      <stop
         style="stop-opacity:1;stop-color:#d5d4d4"
         offset="1"
         id="stop3035" />
    </linearGradient>
  </defs>
  <sodipodi:namedview
     id="base"
     pagecolor="#ffffff"
     bordercolor="#666666"
     borderopacity="1.0"
     inkscape:pageopacity="0.0"
     inkscape:pageshadow="2"
     inkscape:zoom="1"
     inkscape:cx="27.144526"
     inkscape:cy="5.2430565"
     inkscape:document-units="px"
     inkscape:current-layer="layer1"
     showgrid="false"
     showborder="false"
     inkscape:showpageshadow="false"
     fit-margin-top="0"
     fit-margin-left="0"
     fit-margin-right="0"
     fit-margin-bottom="0"
     inkscape:window-width="1304"
     inkscape:window-height="746"
     inkscape:window-x="-8"
     inkscape:window-y="-8"
     inkscape:window-maximized="1" />
  <metadata
     id="metadata3811">
    <rdf:RDF>
      <cc:Work
         rdf:about="">
        <dc:format>image/svg+xml</dc:format>
        <dc:type
           rdf:resource="http://purl.org/dc/dcmitype/StillImage" />
        <dc:title></dc:title>
      </cc:Work>
    </rdf:RDF>
  </metadata>
  <g
     inkscape:label="Layer 1"
     inkscape:groupmode="layer"
     id="layer1"
     transform="translate(-347.85547,-675.92239)">
    <g
       id="g3009"
       transform="matrix(2.7500059,0,0,-2.4999955,364.67463,675.92239)">
      <path
         inkscape:connector-curvature="0"
         d="M 0,0 84.584,0 41.937,-51.043 0,0 z m 15.444,-3.859 -4.172,-4.471 30.684,-37.986 31.501,37.69 -4.171,4.767 -53.842,0 z"
         style="fill:#f6f6f7;fill-opacity:1;fill-rule:nonzero;stroke:none"
         id="path3011" />
    </g>
    <g
       id="g3013"
       transform="matrix(2.7500059,0,0,-2.4999955,369.9464,680.71612)">
      <path
         inkscape:connector-curvature="0"
         d="M 0,0 83.94,0 41.295,-51.041 0,0 z m 15.445,-3.862 -4.173,-4.468 30.684,-37.986 31.502,37.689 -4.172,4.765 -53.841,0 z"
         style="fill:#a7a9ac;fill-opacity:1;fill-rule:nonzero;stroke:none"
         id="path3015" />
    </g>
    <g
       transform="matrix(2.7500059,0,0,-2.4999955,-435.73217,1238.2448)"
       id="g3017">
      <g
         id="g3019">
        <g
           id="g3025">
          <g
             id="g3027">
            <path
               inkscape:connector-curvature="0"
               d="m 292.014,223.971 41.936,-51.042 42.651,51.042 -84.587,0 z m 11.272,-8.33 4.174,4.469 53.84,0 4.173,-4.766 -31.5,-37.688 -30.687,37.985 z"
               style="fill:url(#linearGradient3029);stroke:none"
               id="path3037" />
          </g>
        </g>
      </g>
    </g>
    <g
       transform="matrix(2.7500059,0,0,-2.4999955,-435.73217,1238.2448)"
       id="g3039">
      <g
         id="g3041"
         clip-path="url(#clipPath3043)">
        <g
           id="g3047"
           transform="translate(390.5721,192.8976)">
          <path
             inkscape:connector-curvature="0"
             d="M 0,0 C 0.158,-0.085 0.281,-0.207 0.37,-0.368 0.459,-0.527 0.504,-0.694 0.504,-0.866 0.504,-1.038 0.459,-1.202 0.373,-1.36 0.285,-1.517 0.164,-1.64 0.006,-1.727 -0.151,-1.815 -0.316,-1.86 -0.487,-1.86 c -0.171,0 -0.336,0.045 -0.493,0.133 -0.158,0.087 -0.28,0.21 -0.368,0.367 -0.087,0.158 -0.132,0.322 -0.132,0.494 0,0.172 0.046,0.339 0.135,0.498 0.09,0.161 0.214,0.283 0.371,0.368 0.157,0.086 0.32,0.129 0.487,0.129 C -0.321,0.129 -0.159,0.086 0,0 m -1.07,0.172 c -0.191,-0.102 -0.339,-0.249 -0.445,-0.44 -0.107,-0.192 -0.16,-0.39 -0.16,-0.598 0,-0.206 0.052,-0.403 0.158,-0.591 0.104,-0.189 0.251,-0.338 0.439,-0.441 0.188,-0.105 0.385,-0.157 0.591,-0.157 0.205,0 0.403,0.052 0.591,0.157 0.188,0.103 0.335,0.252 0.439,0.441 0.104,0.188 0.157,0.385 0.157,0.591 0,0.208 -0.053,0.406 -0.16,0.598 -0.104,0.191 -0.254,0.338 -0.442,0.44 -0.19,0.102 -0.385,0.154 -0.585,0.154 -0.2,0 -0.394,-0.052 -0.583,-0.154 m 0.275,-1.697 0,0.547 0.121,0 c 0.073,0.001 0.127,-0.014 0.165,-0.045 0.051,-0.04 0.122,-0.141 0.211,-0.299 l 0.116,-0.203 0.251,0 -0.155,0.252 c -0.074,0.12 -0.137,0.206 -0.188,0.256 -0.028,0.027 -0.063,0.05 -0.109,0.068 0.11,0.01 0.197,0.048 0.263,0.118 0.066,0.069 0.099,0.151 0.099,0.244 0,0.067 -0.02,0.129 -0.06,0.188 -0.04,0.059 -0.094,0.1 -0.161,0.123 -0.067,0.024 -0.175,0.036 -0.326,0.036 l -0.44,0 0,-1.285 0.213,0 z m 0,1.112 0.235,0 c 0.101,0 0.169,-0.006 0.207,-0.022 0.036,-0.014 0.066,-0.036 0.087,-0.067 0.021,-0.029 0.03,-0.064 0.03,-0.102 0,-0.059 -0.021,-0.106 -0.065,-0.141 -0.043,-0.036 -0.124,-0.054 -0.244,-0.054 l -0.25,0 0,0.386 z"
             style="fill:#0079c1;fill-opacity:1;fill-rule:nonzero;stroke:none"
             id="path3049" />
        </g>
        <g
           id="g3051"
           transform="translate(291.3466,208.1309)">
          <path
             inkscape:connector-curvature="0"
             d="m 0,0 1.438,0 c 3.937,0 6.718,-2.297 6.718,-6.379 0,-4.445 -3.126,-6.38 -6.781,-6.38 L 0,-12.759 0,0 z m -6.124,-17.777 8.686,0 c 6.532,0 11.968,4.989 11.968,11.398 C 14.53,0.032 9.124,5.02 2.562,5.02 l -8.686,0 0,-22.797 z"
             style="fill:#0079c1;fill-opacity:1;fill-rule:nonzero;stroke:none"
             id="path3053" />
        </g>
        <g
           id="g3055"
           transform="translate(291.3466,208.1309)">
          <path
             inkscape:connector-curvature="0"
             d="m 0,0 1.438,0 c 3.937,0 6.718,-2.297 6.718,-6.379 0,-4.445 -3.126,-6.38 -6.781,-6.38 L 0,-12.759 0,0 z m -6.124,-17.777 8.686,0 c 6.532,0 11.968,4.989 11.968,11.398 C 14.53,0.032 9.124,5.02 2.562,5.02 l -8.686,0 0,-22.797 z"
             style="fill:none;stroke:#ffffff;stroke-width:0.58999997;stroke-linecap:butt;stroke-linejoin:miter;stroke-miterlimit:4;stroke-opacity:1;stroke-dasharray:none"
             id="path3057" />
        </g>
        <g
           id="g3059"
           transform="translate(320.213,208.331)">
          <path
             inkscape:connector-curvature="0"
             d="m 0,0 c 3.53,0 6.426,-2.872 6.426,-6.018 0,-3.93 -2.896,-6.802 -6.426,-6.802 -3.528,0 -6.424,2.872 -6.424,6.802 C -6.424,-2.872 -3.528,0 0,0 m 0,5.744 c -6.545,0 -12.579,-4.837 -12.579,-11.732 0,-7.377 5.279,-12.578 12.579,-12.578 7.302,0 12.579,5.201 12.579,12.578 C 12.579,0.907 6.548,5.744 0,5.744"
             style="fill:#0079c1;fill-opacity:1;fill-rule:nonzero;stroke:none"
             id="path3061" />
        </g>
        <g
           id="g3063"
           transform="translate(320.213,208.331)">
          <path
             inkscape:connector-curvature="0"
             d="m 0,0 c 3.53,0 6.426,-2.872 6.426,-6.018 0,-3.93 -2.896,-6.802 -6.426,-6.802 -3.528,0 -6.424,2.872 -6.424,6.802 C -6.424,-2.872 -3.528,0 0,0 z m 0,5.744 c -6.545,0 -12.579,-4.837 -12.579,-11.732 0,-7.377 5.279,-12.578 12.579,-12.578 7.302,0 12.579,5.201 12.579,12.578 C 12.579,0.907 6.548,5.744 0,5.744 z"
             style="fill:none;stroke:#ffffff;stroke-width:0.579;stroke-linecap:butt;stroke-linejoin:miter;stroke-miterlimit:4;stroke-opacity:1;stroke-dasharray:none"
             id="path3065" />
        </g>
        <g
           id="g3067"
           transform="translate(341.0389,208.6164)">
          <path
             inkscape:connector-curvature="0"
             d="m 0,0 0.594,0 c 1.999,0 4.249,-0.365 4.249,-2.844 0,-2.478 -2.25,-2.841 -4.249,-2.841 L 0,-5.685 0,0 z m 6.06,-8.92 c 3.345,0.575 5.157,3.295 5.157,6.44 0,4.867 -3.531,7.015 -8.187,7.015 l -9.156,0 0,-22.798 6.126,0 0,8.768 0.062,0 5.78,-8.768 7.625,0 -7.407,9.343 z"
             style="fill:#0079c1;fill-opacity:1;fill-rule:nonzero;stroke:none"
             id="path3069" />
        </g>
        <g
           id="g3071"
           transform="translate(341.0389,208.6164)">
          <path
             inkscape:connector-curvature="0"
             d="m 0,0 0.594,0 c 1.999,0 4.249,-0.365 4.249,-2.844 0,-2.478 -2.25,-2.841 -4.249,-2.841 L 0,-5.685 0,0 z m 6.06,-8.92 c 3.345,0.575 5.157,3.295 5.157,6.44 0,4.867 -3.531,7.015 -8.187,7.015 l -9.156,0 0,-22.798 6.126,0 0,8.768 0.062,0 5.78,-8.768 7.625,0 -7.407,9.343 z"
             style="fill:none;stroke:#ffffff;stroke-width:0.58999997;stroke-linecap:butt;stroke-linejoin:miter;stroke-miterlimit:4;stroke-opacity:1;stroke-dasharray:none"
             id="path3073" />
        </g>
        <g
           id="g3075"
           transform="translate(362.9126,208.1309)">
          <path
             inkscape:connector-curvature="0"
             d="m 0,0 0,-3.81 6.906,0 0,-5.017 -6.906,0 0,-3.932 7.28,0 0,-5.018 -13.405,0 0,22.797 13.405,0 L 7.28,0 0,0 z"
             style="fill:#0079c1;fill-opacity:1;fill-rule:nonzero;stroke:none"
             id="path3077" />
        </g>
        <g
           id="g3079"
           transform="translate(362.9126,208.1309)">
          <path
             inkscape:connector-curvature="0"
             d="m 0,0 0,-3.81 6.906,0 0,-5.017 -6.906,0 0,-3.932 7.28,0 0,-5.018 -13.405,0 0,22.797 13.405,0 L 7.28,0 0,0 z"
             style="fill:none;stroke:#ffffff;stroke-width:0.58999997;stroke-linecap:butt;stroke-linejoin:miter;stroke-miterlimit:4;stroke-opacity:1;stroke-dasharray:none"
             id="path3081" />
        </g>
        <g
           id="g3083"
           transform="translate(380.0979,195.3717)">
          <path
             inkscape:connector-curvature="0"
             d="m 0,0 7.344,0 0,-5.018 -13.468,0 0,22.798 L 0,17.78 0,0 z"
             style="fill:#0079c1;fill-opacity:1;fill-rule:nonzero;stroke:none"
             id="path3085" />
        </g>
        <g
           id="g3087"
           transform="translate(380.0979,195.3717)">
          <path
             inkscape:connector-curvature="0"
             d="m 0,0 7.344,0 0,-5.018 -13.468,0 0,22.798 L 0,17.78 0,0 z"
             style="fill:none;stroke:#ffffff;stroke-width:0.58999997;stroke-linecap:butt;stroke-linejoin:miter;stroke-miterlimit:4;stroke-opacity:1;stroke-dasharray:none"
             id="path3089" />
        </g>
      </g>
    </g>
  </g>
</svg>
